<svg width="25" height="24" viewBox="0 0 25 24" fill="none" xmlns="http://www.w3.org/2000/svg">
<path fill-rule="evenodd" clip-rule="evenodd" d="M17.4998 6H7.5C6.94772 6 6.5 6.44772 6.5 7C6.5 7.55228 6.94772 8 7.5 8H15.0858L6.79289 16.2929C6.40237 16.6834 6.40237 17.3166 6.79289 17.7071C7.18342 18.0976 7.81658 18.0976 8.20711 17.7071L16.5 9.41421V17C16.5 17.5523 16.9477 18 17.5 18C18.0523 18 18.5 17.5523 18.5 17V7.00069V7C18.5 6.999 18.5 6.998 18.5 6.997C18.4992 6.72313 18.3883 6.47515 18.2092 6.29502C18.2078 6.2936 18.2064 6.29219 18.205 6.29078C18.1096 6.19595 17.9999 6.12432 17.8828 6.07588C17.7649 6.02699 17.6356 6 17.5 6H17.4998Z" fill="#262626"/>
</svg>
