<svg width="30" height="30" viewBox="0 0 30 30" fill="none" xmlns="http://www.w3.org/2000/svg">
<path fill-rule="evenodd" clip-rule="evenodd" d="M6.36937 14.332C11.737 11.9404 15.3103 10.3513 17.1046 9.58035C22.2115 7.39335 23.285 7.01573 23.9751 7C24.1285 7 24.4659 7.03147 24.6959 7.22027C24.8799 7.37761 24.926 7.58215 24.9566 7.73949C24.9873 7.89683 25.018 8.22724 24.9873 8.47898C24.7112 11.4684 23.515 18.7217 22.9016 22.0573C22.6409 23.4733 22.1348 23.9453 21.644 23.9925C20.5705 24.0869 19.7577 23.2688 18.7302 22.5765C17.1046 21.4908 16.1998 20.8143 14.6201 19.7444C12.7952 18.5172 13.976 17.8406 15.0189 16.7392C15.2949 16.456 20.0031 12.0506 20.0951 11.6572C20.1104 11.61 20.1104 11.4212 20.0031 11.3268C19.8957 11.2324 19.7424 11.2639 19.6197 11.2953C19.451 11.3268 16.8745 13.089 11.8597 16.5662C11.1235 17.0854 10.4641 17.3371 9.86598 17.3214C9.20654 17.3057 7.94898 16.9438 6.99815 16.6291C5.84795 16.2515 4.92779 16.0469 5.00447 15.3861C5.05048 15.04 5.51056 14.6938 6.36937 14.332Z" fill="#52A2FF"/>
</svg>
